<svg xmlns="http://www.w3.org/2000/svg" xmlns:xlink="http://www.w3.org/1999/xlink" width="500" zoomAndPan="magnify" viewBox="0 0 375 374.999991" height="500" preserveAspectRatio="xMidYMid meet" version="1.0"><defs><g/><clipPath id="4f281bb8e7"><rect x="0" width="184" y="0" height="197"/></clipPath></defs><g transform="matrix(1, 0, 0, 1, 96, 89)"><g clip-path="url(#4f281bb8e7)"><g fill="#ff0000" fill-opacity="1"><g transform="translate(0.683004, 155.957569)"><g><path d="M 1.34375 0 L 1.34375 -13.40625 L 23.8125 -95.28125 L 2.53125 -95.28125 L 2.53125 -110.765625 L 41.390625 -110.765625 L 41.390625 -97.8125 L 18.609375 -15.328125 L 41.53125 -15.328125 L 41.53125 0 Z M 1.34375 0 "/></g></g></g><g fill="#ff0000" fill-opacity="1"><g transform="translate(43.857626, 155.957569)"><g><path d="M 0.59375 0 L 14 -110.765625 L 37.515625 -110.765625 L 51.0625 0 L 34.234375 0 L 32.3125 -18.453125 L 19.203125 -18.453125 L 17.265625 0 Z M 20.6875 -32.453125 L 30.96875 -32.453125 L 26.796875 -73.390625 L 25.90625 -86.9375 L 25.609375 -86.9375 L 24.859375 -73.390625 Z M 20.6875 -32.453125 "/></g></g></g><g fill="#ff0000" fill-opacity="1"><g transform="translate(88.967678, 155.957569)"><g><path d="M 15.921875 0 L 15.921875 -30.515625 L 0.59375 -110.765625 L 17.5625 -110.765625 L 23.671875 -59.25 L 23.96875 -53.296875 L 24.265625 -53.296875 L 24.71875 -59.25 L 30.671875 -110.765625 L 47.640625 -110.765625 L 32.453125 -30.515625 L 32.453125 0 Z M 15.921875 0 "/></g></g></g><g fill="#ff0000" fill-opacity="1"><g transform="translate(130.65353, 155.957569)"><g><path d="M 0.59375 0 L 14 -110.765625 L 37.515625 -110.765625 L 51.0625 0 L 34.234375 0 L 32.3125 -18.453125 L 19.203125 -18.453125 L 17.265625 0 Z M 20.6875 -32.453125 L 30.96875 -32.453125 L 26.796875 -73.390625 L 25.90625 -86.9375 L 25.609375 -86.9375 L 24.859375 -73.390625 Z M 20.6875 -32.453125 "/></g></g></g></g></g></svg>